<svg xmlns="http://www.w3.org/2000/svg" viewBox="0 0 507.24 266.58"><defs><style>.cls-1{fill:#f2f2f2;}.cls-2{fill:#99b2c5;}.cls-3{fill:#fff;}.cls-4{fill:#136cab;}.cls-5{fill:#7b8b9b;}.cls-6{fill:#7d99ac;}.cls-7{fill:#c2dae1;}.cls-8{fill:#dde5eb;}.cls-9{fill:#f43f54;}.cls-10{fill:#f5b105;}.cls-11{fill:#28c576;}.cls-12{fill:#f7b100;}.cls-13{fill:#f1c8bd;}.cls-14{fill:#291a6d;}.cls-15{fill:#f4c0ae;}.cls-16{fill:#f5cec0;}.cls-17{fill:#e0eaef;}.cls-18{fill:#f5cebb;}.cls-19{fill:#efa400;}.cls-20{fill:#161052;}.cls-21{fill:#b5cbd0;}.cls-22{fill:#758899;}.cls-23{fill:#e1b7ac;}.cls-24{fill:#e72e49;}.cls-25{fill:#e3b09d;}.cls-26{fill:#e4bdaf;}.cls-27{fill:#2c2380;}</style></defs><title>Recurso 1</title><g id="Capa_2" data-name="Capa 2"><g id="layer_1" data-name="layer 1"><path class="cls-1" d="M132.32,176.86c-24.6,24.9-50.24,33-67.41,35.34-1.41.19-2.81.36-4.21.49.11-5,.1-9.37-.13-12,20-2.24,43-11.8,63.22-32.25Z"/><path class="cls-2" d="M435.36,164.23H197.67L245.25,14a6.35,6.35,0,0,1,6.06-4.43H467.93a6.35,6.35,0,0,1,6.14,8Z"/><path class="cls-3" d="M420.35,154.77H216.91a3.7,3.7,0,0,1-3.52-4.81L254,21.65a3.7,3.7,0,0,1,3.52-2.58H454.22a3.7,3.7,0,0,1,3.57,4.64L423.93,152A3.7,3.7,0,0,1,420.35,154.77Z"/><rect class="cls-4" x="104.59" y="161.34" width="242.5" height="5.2"/><rect class="cls-5" x="346.92" y="161.34" width="89.25" height="5.2"/><path class="cls-6" d="M349.51,166.53H193.3s4.43,10.8,35.18,12.23H400.62c30.75-1.43,35.18-12.23,35.18-12.23Z"/><path class="cls-2" d="M346.92,166.53H104.59s4.43,10.8,35.18,12.23H311.9c28.51-1.33,34.39-10.7,35.1-12.06Z"/><path class="cls-7" d="M187.59,166.53H235a0,0,0,0,1,0,0v2.62a3.18,3.18,0,0,1-3.18,3.18h-41a3.18,3.18,0,0,1-3.18-3.18v-2.62A0,0,0,0,1,187.59,166.53Z"/><rect class="cls-6" x="104.59" y="161.34" width="242.5" height="5.2"/><path class="cls-7" d="M242.12,117.77h173a8.35,8.35,0,0,0,7.5-5.83L453,5.83c.92-3.22-.94-5.83-4.15-5.83h-173a8.35,8.35,0,0,0-7.5,5.83L238,111.94C237,115.16,238.9,117.77,242.12,117.77Z"/><path class="cls-8" d="M236.21,122h173a8.35,8.35,0,0,0,7.5-5.83L447.09,10c.92-3.22-.94-5.83-4.16-5.83H270a8.35,8.35,0,0,0-7.5,5.83L232.06,116.16C231.14,119.37,233,122,236.21,122Z"/><path class="cls-9" d="M305.71,28.43,312,37a17.27,17.27,0,0,0,6-8.57c1.75-6.09-1.25-11.15-6.8-12.1Z"/><path class="cls-2" d="M293.08,30.13c-.83,5.62,2.5,10,8.07,10.51l4.56-12.21Z"/><path class="cls-3" d="M300.54,19a18.68,18.68,0,0,0-3.17,2.69,16.54,16.54,0,0,0-3.93,6.71,13.25,13.25,0,0,0-.37,1.7l12.63-1.7Z"/><path class="cls-3" d="M300.54,19l5.17,9.41,5.46-12.1a11.62,11.62,0,0,0-1.94-.16A15.79,15.79,0,0,0,300.54,19Z"/><path class="cls-10" d="M301.15,40.65q.51,0,1,0A16.2,16.2,0,0,0,312,37l-6.3-8.57Z"/><polygon class="cls-2" points="283.64 20.21 271.01 20.21 272.58 14.74 285.21 14.74 283.64 20.21"/><polygon class="cls-9" points="281.28 28.43 268.65 28.43 270.23 22.95 282.85 22.95 281.28 28.43"/><polygon class="cls-10" points="278.92 36.65 266.3 36.65 267.87 31.17 280.5 31.17 278.92 36.65"/><polygon class="cls-3" points="276.57 44.86 263.94 44.86 265.51 39.39 278.14 39.39 276.57 44.86"/><path class="cls-3" d="M277.38,66.5h18.84a2.29,2.29,0,0,0,2.06-1.6h0a1.17,1.17,0,0,0-1.14-1.6H278.3a2.29,2.29,0,0,0-2.06,1.6h0A1.17,1.17,0,0,0,277.38,66.5Z"/><path class="cls-3" d="M302.21,66.5H303a2.29,2.29,0,0,0,2.06-1.6h0a1.17,1.17,0,0,0-1.14-1.6h-.78a2.29,2.29,0,0,0-2.06,1.6h0A1.17,1.17,0,0,0,302.21,66.5Z"/><path class="cls-3" d="M258.91,71.73h18.84a2.3,2.3,0,0,0,2.06-1.6h0a1.17,1.17,0,0,0-1.14-1.6H259.83a2.3,2.3,0,0,0-2.06,1.6h0A1.17,1.17,0,0,0,258.91,71.73Z"/><path class="cls-3" d="M283.74,71.73h.78a2.3,2.3,0,0,0,2.06-1.6h0a1.17,1.17,0,0,0-1.14-1.6h-.78a2.3,2.3,0,0,0-2.06,1.6h0A1.17,1.17,0,0,0,283.74,71.73Z"/><path class="cls-3" d="M260.41,66.5H271a2.29,2.29,0,0,0,2.06-1.6h0a1.17,1.17,0,0,0-1.14-1.6H261.33a2.3,2.3,0,0,0-2.06,1.6h0A1.17,1.17,0,0,0,260.41,66.5Z"/><path class="cls-3" d="M290.86,71.73h10.63a2.29,2.29,0,0,0,2.06-1.6h0a1.17,1.17,0,0,0-1.14-1.6H291.78a2.29,2.29,0,0,0-2.06,1.6h0A1.17,1.17,0,0,0,290.86,71.73Z"/><path class="cls-3" d="M274.23,77.48h18.84a2.3,2.3,0,0,0,2.06-1.6h0a1.17,1.17,0,0,0-1.14-1.6H275.15a2.3,2.3,0,0,0-2.06,1.6h0A1.17,1.17,0,0,0,274.23,77.48Z"/><path class="cls-3" d="M299.06,77.48h.78a2.3,2.3,0,0,0,2.06-1.6h0a1.17,1.17,0,0,0-1.14-1.6H300a2.3,2.3,0,0,0-2.06,1.6h0A1.17,1.17,0,0,0,299.06,77.48Z"/><path class="cls-3" d="M255.76,82.71h18.84a2.3,2.3,0,0,0,2.06-1.6h0a1.17,1.17,0,0,0-1.14-1.6H256.68a2.29,2.29,0,0,0-2.06,1.6h0A1.16,1.16,0,0,0,255.76,82.71Z"/><path class="cls-3" d="M280.59,82.71h.78a2.3,2.3,0,0,0,2.06-1.6h0a1.17,1.17,0,0,0-1.14-1.6h-.78a2.29,2.29,0,0,0-2.06,1.6h0A1.16,1.16,0,0,0,280.59,82.71Z"/><path class="cls-3" d="M257.26,77.48H267.9a2.29,2.29,0,0,0,2.06-1.6h0a1.17,1.17,0,0,0-1.14-1.6H258.18a2.29,2.29,0,0,0-2.06,1.6h0A1.16,1.16,0,0,0,257.26,77.48Z"/><path class="cls-3" d="M287.71,82.71h10.63a2.3,2.3,0,0,0,2.06-1.6h0a1.17,1.17,0,0,0-1.14-1.6H288.63a2.3,2.3,0,0,0-2.06,1.6h0A1.17,1.17,0,0,0,287.71,82.71Z"/><path class="cls-3" d="M270.16,91.69H289a2.3,2.3,0,0,0,2.06-1.6h0a1.17,1.17,0,0,0-1.14-1.6H271.07a2.3,2.3,0,0,0-2.06,1.6h0A1.17,1.17,0,0,0,270.16,91.69Z"/><path class="cls-3" d="M295,91.69h.78a2.3,2.3,0,0,0,2.06-1.6h0a1.17,1.17,0,0,0-1.14-1.6h-.78a2.3,2.3,0,0,0-2.06,1.6h0A1.17,1.17,0,0,0,295,91.69Z"/><path class="cls-3" d="M251.69,96.92h18.84a2.3,2.3,0,0,0,2.06-1.6h0a1.17,1.17,0,0,0-1.14-1.6H252.61a2.29,2.29,0,0,0-2.06,1.6h0A1.17,1.17,0,0,0,251.69,96.92Z"/><path class="cls-3" d="M276.52,96.92h.78a2.29,2.29,0,0,0,2.06-1.6h0a1.17,1.17,0,0,0-1.14-1.6h-.78a2.29,2.29,0,0,0-2.06,1.6h0A1.17,1.17,0,0,0,276.52,96.92Z"/><path class="cls-3" d="M253.19,91.69h10.63a2.29,2.29,0,0,0,2.06-1.6h0a1.17,1.17,0,0,0-1.14-1.6H254.11a2.29,2.29,0,0,0-2.06,1.6h0A1.16,1.16,0,0,0,253.19,91.69Z"/><path class="cls-3" d="M283.63,96.92h10.63a2.3,2.3,0,0,0,2.06-1.6h0a1.17,1.17,0,0,0-1.14-1.6H284.55a2.3,2.3,0,0,0-2.06,1.6h0A1.17,1.17,0,0,0,283.63,96.92Z"/><path class="cls-3" d="M267,102.67h18.84a2.3,2.3,0,0,0,2.06-1.6h0a1.17,1.17,0,0,0-1.14-1.6H267.93a2.29,2.29,0,0,0-2.06,1.6h0A1.17,1.17,0,0,0,267,102.67Z"/><path class="cls-3" d="M291.84,102.67h.78a2.29,2.29,0,0,0,2.06-1.6h0a1.16,1.16,0,0,0-1.14-1.6h-.78a2.29,2.29,0,0,0-2.06,1.6h0A1.17,1.17,0,0,0,291.84,102.67Z"/><path class="cls-3" d="M248.54,107.91h18.84a2.3,2.3,0,0,0,2.06-1.6h0a1.17,1.17,0,0,0-1.14-1.6H249.46a2.3,2.3,0,0,0-2.06,1.6h0A1.17,1.17,0,0,0,248.54,107.91Z"/><path class="cls-3" d="M273.37,107.91h.78a2.3,2.3,0,0,0,2.06-1.6h0a1.17,1.17,0,0,0-1.14-1.6h-.78a2.29,2.29,0,0,0-2.06,1.6h0A1.17,1.17,0,0,0,273.37,107.91Z"/><path class="cls-3" d="M250,102.67h10.63a2.29,2.29,0,0,0,2.06-1.6h0a1.16,1.16,0,0,0-1.14-1.6H251a2.29,2.29,0,0,0-2.06,1.6h0A1.17,1.17,0,0,0,250,102.67Z"/><path class="cls-3" d="M280.49,107.91h10.63a2.29,2.29,0,0,0,2.06-1.6h0a1.17,1.17,0,0,0-1.14-1.6H281.4a2.29,2.29,0,0,0-2.06,1.6h0A1.17,1.17,0,0,0,280.49,107.91Z"/><path class="cls-3" d="M387.56,17.38h40.86a3.22,3.22,0,0,0,2.89-2.25h0a1.64,1.64,0,0,0-1.6-2.25H388.85A3.22,3.22,0,0,0,386,15.13h0A1.64,1.64,0,0,0,387.56,17.38Z"/><path class="cls-3" d="M376.62,17.38h2.93a3.22,3.22,0,0,0,2.89-2.25h0a1.63,1.63,0,0,0-1.6-2.25h-2.93A3.22,3.22,0,0,0,375,15.13h0A1.64,1.64,0,0,0,376.62,17.38Z"/><path class="cls-3" d="M351.71,17.38h13.14a3.22,3.22,0,0,0,2.89-2.25h0a1.63,1.63,0,0,0-1.6-2.25H353a3.22,3.22,0,0,0-2.89,2.25h0A1.63,1.63,0,0,0,351.71,17.38Z"/><path class="cls-3" d="M406.53,108.7a5.25,5.25,0,0,0,.67-.27l13-45.32-.79.54-12.92,45.07Z"/><path class="cls-3" d="M405,108.79l12.53-43.71-.63.5-.19.17-12.34,43Z"/><path class="cls-3" d="M402.84,108.79l11.87-41.4c-.26.2-.52.38-.79.55l-11.71,40.85Z"/><path class="cls-3" d="M400.71,108.79l11-38.47-.82.65-10.84,37.82Z"/><path class="cls-3" d="M398.58,108.79,409,72.35l-.77.5-10.31,35.94Z"/><path class="cls-3" d="M396.45,108.79,406.5,73.71a4.67,4.67,0,0,1-.69.19l-10,34.89Z"/><path class="cls-3" d="M394.31,108.79l10-35a5,5,0,0,1-.56-.24l-10.09,35.2Z"/><path class="cls-3" d="M392.18,108.79l10.29-35.88h0l-.55-.24-10.36,36.12Z"/><path class="cls-3" d="M390,108.79,400.6,72a6.09,6.09,0,0,1-.53-.35l-10.65,37.14Z"/><path class="cls-3" d="M387.92,108.79l10.87-37.92-.21-.13a3.61,3.61,0,0,1-.47.3l-10.82,37.74Z"/><path class="cls-3" d="M385.79,108.79l10.5-36.64c-.27.2-.54.4-.81.62l-10.33,36Z"/><path class="cls-3" d="M383.65,108.79l9.83-34.27-.85.76L383,108.79Z"/><path class="cls-3" d="M381.52,108.79,390.64,77q-.44.38-.86.79l-8.9,31Z"/><path class="cls-3" d="M379.39,108.79l8.29-28.92-.89.92-8,28Z"/><path class="cls-3" d="M377.26,108.79l7.46-26-.32.29a3.84,3.84,0,0,1-.5.37l-7.27,25.35Z"/><path class="cls-3" d="M375.12,108.79l6.64-23.15a10.3,10.3,0,0,1-.89.9l-6.38,22.25Z"/><path class="cls-3" d="M373,108.79l5.86-20.44-.17.14c-.25.24-.48.5-.72.76l-5.6,19.54Z"/><path class="cls-3" d="M370.86,108.79l4.91-17.11c-.29.32-.59.62-.9.92l-4.64,16.19Z"/><path class="cls-3" d="M368.73,108.79l4-13.87a3,3,0,0,1-.79.55l-3.82,13.32Z"/><path class="cls-3" d="M366.6,108.79l3.8-13.25a1.54,1.54,0,0,1-.52-.38L366,108.79Z"/><path class="cls-3" d="M364.46,108.79l4.65-16.2c-.14-.24-.28-.47-.43-.7l-4.85,16.9Z"/><path class="cls-3" d="M362.33,108.79l5.3-18.48a7.26,7.26,0,0,1-.41-.75h0l-5.52,19.24Z"/><path class="cls-3" d="M360.2,108.79l5.87-20.46a7.62,7.62,0,0,0-.46-.62l-6,21.08Z"/><path class="cls-3" d="M358.07,108.79l6.4-22.32L364,86l-6.55,22.83Z"/><path class="cls-3" d="M355.94,108.79l6.94-24.21a6.31,6.31,0,0,1-.41-.77l-7.16,25Z"/><path class="cls-3" d="M353.8,108.79l7.77-27.08c-.12-.29-.25-.57-.39-.85l-8,27.93Z"/><path class="cls-3" d="M351.67,108.79l8.5-29.64a5.59,5.59,0,0,0-.47-.55L351,108.79Z"/><path class="cls-3" d="M349.54,108.79l8.9-31a2.56,2.56,0,0,0-.6-.12l-8.93,31.15Z"/><path class="cls-3" d="M347.41,108.79l8.85-30.87a5.56,5.56,0,0,0-.74.36l-8.75,30.51Z"/><path class="cls-3" d="M345.28,108.79l8.38-29.21-.81.63-8.2,28.58Z"/><path class="cls-3" d="M343.14,108.79l7.72-26.93-.84.74-7.51,26.2Z"/><path class="cls-3" d="M341,108.79l7-24.35-.86.79-6.76,23.56Z"/><path class="cls-3" d="M338.88,108.79l6.22-21.7-.85.75-6,21Z"/><path class="cls-3" d="M336.75,108.79l5.53-19.29-.82.65-5.34,18.63Z"/><path class="cls-3" d="M334.61,108.79l4.89-17a3.58,3.58,0,0,1-.82.65L334,108.79Z"/><path class="cls-3" d="M332.48,108.79l4.6-16a3,3,0,0,1-.61-.08l-4.62,16.12Z"/><path class="cls-3" d="M330.35,108.79,335.17,92a5.91,5.91,0,0,1-.49-.49l-5,17.31Z"/><path class="cls-3" d="M328.22,108.79l5.34-18.64-.47-.57-5.51,19.2Z"/><path class="cls-3" d="M326.09,108.79,332,88.28c-.16-.17-.33-.33-.5-.48l-6,21Z"/><path class="cls-3" d="M324,108.79,330.2,87a2.84,2.84,0,0,0-.3-.11,2.93,2.93,0,0,0-.3,0l-6.29,21.92Z"/><path class="cls-3" d="M321.82,108.79,328.08,87c-.23.06-.46.14-.69.22l-6.19,21.59Z"/><path class="cls-3" d="M319.69,108.79l6-20.86-.74.38-5.87,20.48Z"/><path class="cls-3" d="M317.56,108.79l5.59-19.48-.75.43-5.46,19.05Z"/><path class="cls-3" d="M315.43,108.79l5.14-17.92-.79.55-5,17.37Z"/><path class="cls-3" d="M313.29,108.79l4.62-16.09-.77.49-4.48,15.61Z"/><path class="cls-3" d="M310.75,108.25a.85.85,0,0,0,.47.33l4.15-14.48a6.53,6.53,0,0,1-.7.25l-4,13.85S310.74,108.22,310.75,108.25Z"/><path class="cls-11" d="M422.41,60.92h0a5.19,5.19,0,0,1-1.82,2.6L405.85,75l-8.91-3.64L371,97.32,357.66,77.18,337.41,94.53l-8.27-8.15L312.81,96.56h0a4,4,0,0,1,1.75-2.23l15-9.33L337.74,93,358.1,75.6l13.32,20.06L397,69.95l9,3.68Z"/><path class="cls-11" d="M330.69,85.9c.25-.87-.18-1.57-1-1.57a2.15,2.15,0,0,0-1.86,1.57c-.25.87.18,1.57,1,1.57A2.15,2.15,0,0,0,330.69,85.9Z"/><path class="cls-11" d="M339.09,93.4a1.05,1.05,0,0,0-1-1.48,2.07,2.07,0,0,0-1.83,1.48,1.05,1.05,0,0,0,1,1.48A2.07,2.07,0,0,0,339.09,93.4Z"/><path class="cls-11" d="M359.34,76.4c.24-.84-.19-1.52-1-1.52a2.1,2.1,0,0,0-1.84,1.52c-.24.84.19,1.52,1,1.52A2.1,2.1,0,0,0,359.34,76.4Z"/><path class="cls-11" d="M372.77,96.2a1.06,1.06,0,0,0-1-1.5A2.09,2.09,0,0,0,370,96.2a1.06,1.06,0,0,0,1,1.5A2.09,2.09,0,0,0,372.77,96.2Z"/><path class="cls-11" d="M398.17,71.1c.25-.86-.18-1.56-1-1.56a2.14,2.14,0,0,0-1.85,1.56c-.25.86.18,1.56,1,1.56A2.14,2.14,0,0,0,398.17,71.1Z"/><path class="cls-11" d="M407.25,74.21c.25-.85-.19-1.55-1-1.55a2.13,2.13,0,0,0-1.85,1.55c-.25.85.19,1.55,1,1.55A2.13,2.13,0,0,0,407.25,74.21Z"/><polygon class="cls-3" points="377.85 69.98 335.29 69.98 335.71 68.16 378.27 68.16 377.85 69.98"/><polygon class="cls-3" points="378.79 65.9 336.24 65.9 336.66 64.08 379.22 64.08 378.79 65.9"/><polygon class="cls-11" points="343.17 69.98 335.29 69.98 335.71 68.16 343.59 68.16 343.17 69.98"/><polygon class="cls-11" points="351.83 65.9 336.24 65.9 336.66 64.08 352.25 64.08 351.83 65.9"/><path class="cls-11" d="M392.93,42.9c-4.58,0-7.24-3.73-5.93-8.31a1.07,1.07,0,0,1,1-.75.55.55,0,0,1,.54.75c-1.08,3.76,1.1,6.81,4.86,6.81a9.77,9.77,0,0,0,8.76-6.81c1.08-3.75-1.1-6.81-4.86-6.81a.55.55,0,0,1-.54-.75,1.08,1.08,0,0,1,1-.75c4.58,0,7.24,3.73,5.93,8.31S397.51,42.9,392.93,42.9Z"/><path class="cls-11" d="M416,42.9a6,6,0,0,1-5.79-3.54.91.91,0,0,1,.48-1c.41-.24.85-.16,1,.18a4.89,4.89,0,0,0,4.75,2.9,9.77,9.77,0,0,0,8.76-6.81c1.08-3.75-1.1-6.81-4.86-6.81a.55.55,0,0,1-.53-.75,1.08,1.08,0,0,1,1-.75c4.58,0,7.24,3.73,5.93,8.31S420.54,42.9,416,42.9Z"/><path class="cls-11" d="M342.61,42.9c-4.58,0-7.24-3.73-5.92-8.31a1.07,1.07,0,0,1,1-.75.55.55,0,0,1,.54.75c-1.08,3.76,1.1,6.81,4.86,6.81a9.77,9.77,0,0,0,8.76-6.81c1.08-3.75-1.1-6.81-4.86-6.81a.54.54,0,0,1-.53-.75,1.07,1.07,0,0,1,1-.75c4.58,0,7.24,3.73,5.93,8.31S347.19,42.9,342.61,42.9Z"/><path class="cls-11" d="M365.64,42.9a6,6,0,0,1-5.79-3.54.91.91,0,0,1,.48-1c.41-.24.85-.16,1,.18a4.88,4.88,0,0,0,4.75,2.9,9.77,9.77,0,0,0,8.76-6.81c1.08-3.75-1.1-6.81-4.86-6.81a.55.55,0,0,1-.53-.75,1.08,1.08,0,0,1,1-.75c4.58,0,7.24,3.73,5.93,8.31S370.23,42.9,365.64,42.9Z"/><path d="M341.12,33.33l.17-.58h2.14l-.13.45a5.13,5.13,0,0,0-.75.75,6.28,6.28,0,0,0-.71,1,4.83,4.83,0,0,0-.42,1h-.6a5.45,5.45,0,0,1,.67-1.38,6.89,6.89,0,0,1,1.07-1.26Z"/><path d="M344,34.21a.48.48,0,0,1-.27-.28.66.66,0,0,1,0-.39,1.12,1.12,0,0,1,.43-.6,1.31,1.31,0,0,1,.79-.24.79.79,0,0,1,.65.24.64.64,0,0,1,.08.6,1,1,0,0,1-.23.41,1.11,1.11,0,0,1-.41.27.58.58,0,0,1,.32.32.75.75,0,0,1,0,.48,1.37,1.37,0,0,1-.5.73A1.35,1.35,0,0,1,344,36a.9.9,0,0,1-.67-.23.72.72,0,0,1-.13-.76,1.25,1.25,0,0,1,.78-.83Zm-.15.77a.49.49,0,0,0,0,.4.31.31,0,0,0,.29.15.55.55,0,0,0,.36-.14.79.79,0,0,0,.24-.4.44.44,0,0,0,0-.37.32.32,0,0,0-.29-.14.52.52,0,0,0-.39.16A.79.79,0,0,0,343.86,35Zm.46-1.4a.33.33,0,0,0,0,.29.29.29,0,0,0,.25.1.51.51,0,0,0,.32-.11.55.55,0,0,0,.19-.29.31.31,0,0,0,0-.28.28.28,0,0,0-.25-.11.51.51,0,0,0-.32.11A.54.54,0,0,0,344.31,33.58Z"/><path d="M346.27,33.51a1.28,1.28,0,0,1,.38-.65.88.88,0,0,1,.58-.21.52.52,0,0,1,.47.21.83.83,0,0,1,0,.65,1.28,1.28,0,0,1-.38.65.88.88,0,0,1-.58.21.51.51,0,0,1-.47-.21A.83.83,0,0,1,346.27,33.51Zm.49,0a.79.79,0,0,0,0,.43.13.13,0,0,0,.13.08.24.24,0,0,0,.18-.08,1.08,1.08,0,0,0,.19-.43.81.81,0,0,0,.05-.43.13.13,0,0,0-.13-.08.25.25,0,0,0-.18.08A1.1,1.1,0,0,0,346.76,33.51Zm0,2.59h-.46L349,32.65h.45Zm1.26-.86a1.28,1.28,0,0,1,.38-.65.89.89,0,0,1,.59-.21.51.51,0,0,1,.47.21.82.82,0,0,1,0,.65,1.28,1.28,0,0,1-.38.65.89.89,0,0,1-.58.21.51.51,0,0,1-.47-.21A.82.82,0,0,1,348,35.24Zm.49,0a.8.8,0,0,0,0,.42.13.13,0,0,0,.13.08.24.24,0,0,0,.18-.08,1.08,1.08,0,0,0,.2-.43.84.84,0,0,0,.05-.43.13.13,0,0,0-.13-.08.24.24,0,0,0-.18.08A1.08,1.08,0,0,0,348.47,35.24Z"/><path d="M366,33.5l-.62.07a.36.36,0,0,0,0-.28.26.26,0,0,0-.22-.09.57.57,0,0,0-.39.18,2,2,0,0,0-.38.74,1,1,0,0,1,.66-.28.65.65,0,0,1,.59.3.91.91,0,0,1,.06.77,1.54,1.54,0,0,1-.52.8,1.32,1.32,0,0,1-.84.3.73.73,0,0,1-.7-.38,1.79,1.79,0,0,1,0-1.26,2.69,2.69,0,0,1,.7-1.29,1.44,1.44,0,0,1,1-.4.7.7,0,0,1,.56.21A.74.74,0,0,1,366,33.5Zm-1.81,1.37a.62.62,0,0,0,0,.47.29.29,0,0,0,.27.17.49.49,0,0,0,.33-.14.92.92,0,0,0,.24-.45.64.64,0,0,0,0-.47.28.28,0,0,0-.27-.15.52.52,0,0,0-.35.14A.84.84,0,0,0,364.15,34.87Z"/><path d="M367.3,36h-.63l.68-2.36a3.05,3.05,0,0,1-.95.47l.16-.57a2.57,2.57,0,0,0,.62-.3,1.75,1.75,0,0,0,.54-.52h.51Z"/><path d="M368.81,33.51a1.28,1.28,0,0,1,.38-.65.88.88,0,0,1,.58-.21.52.52,0,0,1,.47.21.83.83,0,0,1,0,.65,1.28,1.28,0,0,1-.38.65.88.88,0,0,1-.58.21.51.51,0,0,1-.47-.21A.83.83,0,0,1,368.81,33.51Zm.49,0a.8.8,0,0,0,0,.43.13.13,0,0,0,.13.08.24.24,0,0,0,.18-.08,1.08,1.08,0,0,0,.19-.43.82.82,0,0,0,.05-.43.13.13,0,0,0-.13-.08.24.24,0,0,0-.18.08A1.08,1.08,0,0,0,369.3,33.51Zm0,2.59h-.46l2.73-3.45H372Zm1.26-.86a1.28,1.28,0,0,1,.38-.65.89.89,0,0,1,.59-.21.51.51,0,0,1,.47.21.82.82,0,0,1,0,.65,1.29,1.29,0,0,1-.38.65.89.89,0,0,1-.58.21.51.51,0,0,1-.47-.21A.83.83,0,0,1,370.52,35.24Zm.49,0a.8.8,0,0,0,0,.42.13.13,0,0,0,.13.08.24.24,0,0,0,.18-.08,1.08,1.08,0,0,0,.2-.43.85.85,0,0,0,.05-.43.13.13,0,0,0-.13-.08.24.24,0,0,0-.18.08A1.09,1.09,0,0,0,371,35.24Z"/><path d="M391.51,33.33l.17-.58h2.14l-.13.45a5.17,5.17,0,0,0-.75.75,6.21,6.21,0,0,0-.71,1,4.73,4.73,0,0,0-.42,1h-.6a5.42,5.42,0,0,1,.68-1.38,6.88,6.88,0,0,1,1.07-1.26Z"/><path d="M394.32,36l.19-.66h-1.34l.16-.55,2-2.07h.53l-.59,2.07h.41l-.16.55h-.41l-.19.66Zm.35-1.21.32-1.12-1.07,1.12Z"/><path d="M396.33,33.51a1.28,1.28,0,0,1,.38-.65.88.88,0,0,1,.58-.21.52.52,0,0,1,.47.21.83.83,0,0,1,0,.65,1.28,1.28,0,0,1-.38.65.88.88,0,0,1-.58.21.52.52,0,0,1-.47-.21A.83.83,0,0,1,396.33,33.51Zm.49,0a.81.81,0,0,0,0,.43.13.13,0,0,0,.13.08.24.24,0,0,0,.18-.08,1.1,1.1,0,0,0,.19-.43.82.82,0,0,0,.05-.43.13.13,0,0,0-.13-.08.25.25,0,0,0-.18.08A1.11,1.11,0,0,0,396.81,33.51Zm0,2.59h-.46L399,32.65h.45Zm1.26-.86a1.28,1.28,0,0,1,.38-.65.89.89,0,0,1,.59-.21.51.51,0,0,1,.47.21.82.82,0,0,1,0,.65,1.29,1.29,0,0,1-.38.65.89.89,0,0,1-.58.21.51.51,0,0,1-.47-.21A.83.83,0,0,1,398,35.24Zm.49,0a.79.79,0,0,0,0,.42.13.13,0,0,0,.13.08.24.24,0,0,0,.18-.08,1.08,1.08,0,0,0,.2-.43.85.85,0,0,0,.05-.43.13.13,0,0,0-.13-.08.24.24,0,0,0-.18.08A1.08,1.08,0,0,0,398.52,35.24Z"/><path d="M416.81,33.5l-.62.07a.36.36,0,0,0,0-.28.26.26,0,0,0-.22-.09.57.57,0,0,0-.39.18,2,2,0,0,0-.38.74,1,1,0,0,1,.66-.28.65.65,0,0,1,.58.3.91.91,0,0,1,.06.77,1.54,1.54,0,0,1-.52.8,1.32,1.32,0,0,1-.84.3.73.73,0,0,1-.7-.38,1.79,1.79,0,0,1,0-1.26,2.69,2.69,0,0,1,.7-1.29,1.44,1.44,0,0,1,1-.4.71.71,0,0,1,.56.21A.75.75,0,0,1,416.81,33.5ZM415,34.87a.62.62,0,0,0,0,.47.29.29,0,0,0,.27.17.49.49,0,0,0,.33-.14.91.91,0,0,0,.24-.45.63.63,0,0,0,0-.47.28.28,0,0,0-.27-.15.52.52,0,0,0-.34.14A.83.83,0,0,0,415,34.87Z"/><path d="M416.9,35.13l.64-.06a.42.42,0,0,0,.06.34.32.32,0,0,0,.27.12.57.57,0,0,0,.38-.16,1,1,0,0,0,.27-.48.58.58,0,0,0,0-.45.33.33,0,0,0-.31-.15.87.87,0,0,0-.55.24l-.49-.07.81-1.7h1.65l-.17.59h-1.18l-.26.56a1.14,1.14,0,0,1,.46-.1.69.69,0,0,1,.62.3.91.91,0,0,1,.06.79,1.61,1.61,0,0,1-.44.72,1.4,1.4,0,0,1-1,.43.85.85,0,0,1-.67-.24A.76.76,0,0,1,416.9,35.13Z"/><path d="M420,33.51a1.28,1.28,0,0,1,.38-.65.88.88,0,0,1,.58-.21.52.52,0,0,1,.47.21.83.83,0,0,1,0,.65,1.28,1.28,0,0,1-.38.65.88.88,0,0,1-.58.21.52.52,0,0,1-.47-.21A.82.82,0,0,1,420,33.51Zm.49,0a.81.81,0,0,0,0,.43.13.13,0,0,0,.13.08.24.24,0,0,0,.18-.08,1.08,1.08,0,0,0,.19-.43.82.82,0,0,0,.05-.43.13.13,0,0,0-.13-.08.24.24,0,0,0-.18.08A1.09,1.09,0,0,0,420.46,33.51Zm0,2.59H420l2.73-3.45h.45Zm1.26-.86a1.28,1.28,0,0,1,.38-.65.89.89,0,0,1,.59-.21.51.51,0,0,1,.47.21.82.82,0,0,1,0,.65,1.29,1.29,0,0,1-.38.65.89.89,0,0,1-.58.21.51.51,0,0,1-.47-.21A.83.83,0,0,1,421.68,35.24Zm.49,0a.8.8,0,0,0,0,.42.13.13,0,0,0,.13.08.24.24,0,0,0,.18-.08,1.06,1.06,0,0,0,.2-.43.85.85,0,0,0,.05-.43.13.13,0,0,0-.13-.08.24.24,0,0,0-.18.08A1.08,1.08,0,0,0,422.17,35.24Z"/><path class="cls-7" d="M406.18,149.22H232c-2.5,0-3.94-2-3.22-4.52l4.52-15.77a6.47,6.47,0,0,1,5.81-4.52H413.29c2.5,0,3.94,2,3.22,4.52L412,144.7A6.47,6.47,0,0,1,406.18,149.22Z"/><path class="cls-8" d="M402,151.73H227.84c-2.5,0-3.94-2-3.22-4.52l4.52-15.77a6.47,6.47,0,0,1,5.81-4.52H409.1c2.5,0,3.94,2,3.22,4.52l-4.52,15.77A6.47,6.47,0,0,1,402,151.73Z"/><polygon class="cls-12" points="262.43 147.94 259.25 147.94 264.18 130.74 267.37 130.74 262.43 147.94"/><polygon class="cls-9" points="267.75 147.94 264.57 147.94 267.87 136.44 271.05 136.44 267.75 147.94"/><polygon class="cls-11" points="273.08 147.94 269.89 147.94 272.02 140.52 275.21 140.52 273.08 147.94"/><polygon class="cls-12" points="278.4 147.94 275.22 147.94 279.54 132.88 282.72 132.88 278.4 147.94"/><polygon class="cls-3" points="283.72 147.94 280.54 147.94 283.84 136.44 287.02 136.44 283.72 147.94"/><path class="cls-11" d="M237.7,133.43a13.6,13.6,0,0,0-3.54,4.08,9.61,9.61,0,0,0-1.25,6.5l3-1.69a7.1,7.1,0,0,1,1.67-5.18,9.4,9.4,0,0,1,3-2.46l-1-2.46A13.88,13.88,0,0,0,237.7,133.43Z"/><path class="cls-12" d="M251.89,136.62a6.58,6.58,0,0,0-.93-2.84l-2.75,2.14a4.62,4.62,0,0,1,.58,2.43,8.15,8.15,0,0,1-3.32,6,7.72,7.72,0,0,1-5.82,1.73l-2.16,2.8c2.82.79,6.43,0,9.51-2.4C250.42,143.81,252.23,139.92,251.89,136.62Z"/><path class="cls-3" d="M232.92,144a6.33,6.33,0,0,0,1,2.45,6,6,0,0,0,1.16,1.22,6.55,6.55,0,0,0,2.37,1.18l2.16-2.8a4.67,4.67,0,0,1-1.84-.68,4.12,4.12,0,0,1-1.11-1.06,4.27,4.27,0,0,1-.76-2Z"/><path class="cls-9" d="M239.53,132.23l1,2.46a6.93,6.93,0,0,1,5-.74,4.23,4.23,0,0,1,2.37,1.61,3.55,3.55,0,0,1,.23.35l2.75-2.14-.23-.35a6.09,6.09,0,0,0-2.57-2.06A10,10,0,0,0,239.53,132.23Z"/><path class="cls-3" d="M318.23,136H297.76a1.06,1.06,0,0,1-1-1.45h0a2.08,2.08,0,0,1,1.87-1.45h20.48a1.06,1.06,0,0,1,1,1.45h0A2.08,2.08,0,0,1,318.23,136Z"/><path class="cls-3" d="M330.26,136h-6.4a1.06,1.06,0,0,1-1-1.45h0a2.08,2.08,0,0,1,1.87-1.45h6.4a1.06,1.06,0,0,1,1,1.45h0A2.08,2.08,0,0,1,330.26,136Z"/><path class="cls-3" d="M344.63,136h-9.19a1.06,1.06,0,0,1-1-1.45h0a2.08,2.08,0,0,1,1.87-1.45h9.19a1.06,1.06,0,0,1,1,1.45h0A2.08,2.08,0,0,1,344.63,136Z"/><path class="cls-3" d="M352.54,136H350a1.06,1.06,0,0,1-1-1.45h0a2.08,2.08,0,0,1,1.87-1.45h2.5a1.06,1.06,0,0,1,1,1.45h0A2.08,2.08,0,0,1,352.54,136Z"/><path class="cls-3" d="M302.51,140.94h-6.15a1.06,1.06,0,0,1-1-1.45h0a2.08,2.08,0,0,1,1.87-1.45h6.15a1.06,1.06,0,0,1,1,1.45h0A2.08,2.08,0,0,1,302.51,140.94Z"/><path class="cls-3" d="M313.94,140.94h-6.15a1.06,1.06,0,0,1-1-1.45h0a2.08,2.08,0,0,1,1.87-1.45h6.15a1.06,1.06,0,0,1,1,1.45h0A2.08,2.08,0,0,1,313.94,140.94Z"/><path class="cls-3" d="M336.57,140.94H319.51a1.06,1.06,0,0,1-1-1.45h0a2.08,2.08,0,0,1,1.87-1.45h17.06a1.06,1.06,0,0,1,1,1.45h0A2.08,2.08,0,0,1,336.57,140.94Z"/><path class="cls-3" d="M351,140.94h-8.55a1.06,1.06,0,0,1-1-1.45h0a2.08,2.08,0,0,1,1.87-1.45h8.55a1.06,1.06,0,0,1,1,1.45h0A2.08,2.08,0,0,1,351,140.94Z"/><path class="cls-3" d="M306.17,146H294.91a1.06,1.06,0,0,1-1-1.45h0a2.08,2.08,0,0,1,1.87-1.45H307a1.06,1.06,0,0,1,1,1.45h0A2.08,2.08,0,0,1,306.17,146Z"/><path class="cls-3" d="M314.7,146h-3.25a1.06,1.06,0,0,1-1-1.45h0a2.08,2.08,0,0,1,1.87-1.45h3.25a1.06,1.06,0,0,1,1,1.45h0A2.08,2.08,0,0,1,314.7,146Z"/><path class="cls-3" d="M331.05,146H319.86a1.06,1.06,0,0,1-1-1.45h0a2.08,2.08,0,0,1,1.87-1.45h11.19a1.06,1.06,0,0,1,1,1.45h0A2.08,2.08,0,0,1,331.05,146Z"/><path class="cls-3" d="M349.58,146H336.91a1.06,1.06,0,0,1-1-1.45h0a2.08,2.08,0,0,1,1.87-1.45h12.67a1.06,1.06,0,0,1,1,1.45h0A2.08,2.08,0,0,1,349.58,146Z"/><path class="cls-3" d="M383.59,136H363.12a1.06,1.06,0,0,1-1-1.45h0a2.08,2.08,0,0,1,1.87-1.45h20.48a1.06,1.06,0,0,1,1,1.45h0A2.08,2.08,0,0,1,383.59,136Z"/><path class="cls-3" d="M395.62,136h-6.4a1.06,1.06,0,0,1-1-1.45h0a2.08,2.08,0,0,1,1.87-1.45h6.4a1.06,1.06,0,0,1,1,1.45h0A2.08,2.08,0,0,1,395.62,136Z"/><path class="cls-3" d="M367.87,140.94h-6.15a1.06,1.06,0,0,1-1-1.45h0a2.08,2.08,0,0,1,1.87-1.45h6.15a1.06,1.06,0,0,1,1,1.45h0A2.08,2.08,0,0,1,367.87,140.94Z"/><path class="cls-3" d="M379.3,140.94h-6.15a1.06,1.06,0,0,1-1-1.45h0A2.08,2.08,0,0,1,374,138h6.15a1.06,1.06,0,0,1,1,1.45h0A2.08,2.08,0,0,1,379.3,140.94Z"/><path class="cls-3" d="M394.22,140.94h-9.35a1.06,1.06,0,0,1-1-1.45h0A2.08,2.08,0,0,1,385.7,138h9.35a1.06,1.06,0,0,1,1,1.45h0A2.08,2.08,0,0,1,394.22,140.94Z"/><path class="cls-3" d="M371.53,146H360.27a1.06,1.06,0,0,1-1-1.45h0a2.08,2.08,0,0,1,1.87-1.45h11.26a1.06,1.06,0,0,1,1,1.45h0A2.08,2.08,0,0,1,371.53,146Z"/><path class="cls-3" d="M380.06,146h-3.25a1.06,1.06,0,0,1-1-1.45h0a2.08,2.08,0,0,1,1.87-1.45h3.25a1.06,1.06,0,0,1,1,1.45h0A2.08,2.08,0,0,1,380.06,146Z"/><path class="cls-3" d="M392.78,146h-7.55a1.06,1.06,0,0,1-1-1.45h0a2.08,2.08,0,0,1,1.87-1.45h7.55a1.06,1.06,0,0,1,1,1.45h0A2.08,2.08,0,0,1,392.78,146Z"/><path class="cls-13" d="M430.41,118.75c0,.12-.18,1.46.62,1.38,0,0,0,.1.69-.16a1.41,1.41,0,0,0,1.7.31l3.8-1.25c1-.54,3.44-1.58,4.26-4.3,0,0,17.17-8.84,18.66-11.32s1.94-14.1,1.94-14.1l-7.36-1.92s.52,10.38-1.49,12.56-13.42,11.57-13.42,11.57-3-1.12-4-.84c-.41.13-4.1,1.6-3.91,2.41.13.56,1.13.49,1.66.35.69-.18,2.42-.92,2.51-.88s0,.14-.12.29c-.56.58-2.49,1.84-3.61,2.73a9.42,9.42,0,0,0-2.5,2.58A.45.45,0,0,0,430.41,118.75Z"/><path class="cls-14" d="M480.52,209.85a4.09,4.09,0,0,0,.2,1.78c.24.54,7.62,1.94,14.62.68a1.21,1.21,0,0,0,1-1.29l-.06-.8Z"/><path class="cls-14" d="M480.55,209.71c.45-1.33,7.49-2.31,9.94-2.45,2.77-.16.21-1.86,2.46-1.61l2.26.27a9,9,0,0,1,1,3.85c0,.15,0,.3,0,.46,0,1.6-4.72,1.45-9.07,1.4-2.9,0-5.22-.15-6.48-1.39A.49.49,0,0,1,480.55,209.71Z"/><path class="cls-15" d="M495.79,199.8v7.43s-7.12,1.41-5.51.05l-.51-6.85Z"/><path class="cls-14" d="M456.73,209.9a4.07,4.07,0,0,0,0,1.79c.19.56,7.41,2.64,14.5,2a1.21,1.21,0,0,0,1.09-1.19l0-.8Z"/><path class="cls-14" d="M456.77,209.77c.57-1.28,7.67-1.61,10.13-1.52,2.77.1.38-1.84,2.6-1.38l2.23.47a9,9,0,0,1,.68,3.92c0,.15,0,.3,0,.46-.15,1.6-4.83,1-9.16.56-2.88-.3-5.19-.63-6.32-2A.49.49,0,0,1,456.77,209.77Z"/><path class="cls-15" d="M472.86,201.3l-.7,7.4s-7.22.75-5.49-.46l.12-6.87Z"/><path class="cls-14" d="M468.43,117.69s24.21-15.14,35.14-4.89c9.08,17.18-5.71,47.66-5.9,59.51-.15,9.59-.23,18.74-.77,31.58l-7.71-.2a269,269,0,0,1-3.82-30.56c-.57-8,.8-19.39,1.92-32.18l-2.08.09s-6.68,19.62-8,30.09c-1.29,10-2.46,21.55-3.08,32.75l-8.75-.34s-1.55-21.75-1.48-32.88C463.95,155.78,463.79,129.56,468.43,117.69Z"/><path class="cls-16" d="M434.13,63.39s1.27,3.2,2,4.54-.28,2.53-.11,3,1.53.69,1.53.69,1.19,4.59,3,4.92,5.11-2.34,5.11-2.34l3.28,4a11,11,0,0,0,8-7.31l-3.11-3.82s-2.46-9.12-8.41-10.94S434.13,63.39,434.13,63.39Z"/><path class="cls-14" d="M383.29,116.07c-.15.34-.29.67-.42,1a1.47,1.47,0,0,1-1.49.94l-2.64-.23a1.49,1.49,0,0,0-1.56,1.09h0a1.49,1.49,0,0,0,.79,1.73l2.35,1.12a1.5,1.5,0,0,1,.85,1.57q-.08.54-.15,1.09a1.47,1.47,0,0,1-1.2,1.3l-2.61.46a1.49,1.49,0,0,0,0,2.93l2.61.49a1.47,1.47,0,0,1,1.18,1.31q.06.55.14,1.09a1.5,1.5,0,0,1-.86,1.56l-2.36,1.1a1.49,1.49,0,0,0-.81,1.73h0a1.49,1.49,0,0,0,1.55,1.11l2.64-.21a1.47,1.47,0,0,1,1.48,1q.2.51.41,1a1.51,1.51,0,0,1-.43,1.74l-2,1.67a1.49,1.49,0,0,0-.33,1.88h0a1.49,1.49,0,0,0,1.79.67l2.5-.88a1.47,1.47,0,0,1,1.67.53c.22.3.44.59.67.87a1.5,1.5,0,0,1,0,1.79l-1.49,2.14a1.49,1.49,0,0,0,.16,1.9h0a1.49,1.49,0,0,0,1.9.18l2.15-1.47a1.5,1.5,0,0,1,1.79.05l.87.68a1.47,1.47,0,0,1,.52,1.68l-.91,2.49a1.49,1.49,0,0,0,2.53,1.47l1.68-2a1.51,1.51,0,0,1,1.75-.42l1,.42a1.47,1.47,0,0,1,.94,1.49l-.23,2.64a1.49,1.49,0,0,0,1.09,1.56h0a1.49,1.49,0,0,0,1.73-.79l1.12-2.35a1.5,1.5,0,0,1,1.57-.85l1.09.15a1.47,1.47,0,0,1,1.29,1.2l.46,2.61a1.49,1.49,0,0,0,2.93,0l.49-2.61a1.47,1.47,0,0,1,1.31-1.18l1.09-.14a1.5,1.5,0,0,1,1.56.86l1.1,2.36a1.49,1.49,0,0,0,1.73.81h0a1.49,1.49,0,0,0,1.1-1.55l-.2-2.64a1.47,1.47,0,0,1,1-1.48l1-.41a1.51,1.51,0,0,1,1.74.43l1.67,2a1.49,1.49,0,0,0,2.54-1.45l-.88-2.5a1.47,1.47,0,0,1,.53-1.67l.87-.67a1.5,1.5,0,0,1,1.79,0l2.14,1.49a1.49,1.49,0,0,0,1.9-.16h0a1.49,1.49,0,0,0,.18-1.9l-1.47-2.15a1.5,1.5,0,0,1,.05-1.79q.35-.43.68-.87a1.47,1.47,0,0,1,1.68-.52l2.49.9a1.49,1.49,0,0,0,1.79-.65h0a1.49,1.49,0,0,0-.32-1.88l-2-1.68a1.51,1.51,0,0,1-.42-1.75q.22-.5.42-1a1.47,1.47,0,0,1,1.49-.94l2.64.23a1.49,1.49,0,0,0,1.56-1.09h0a1.49,1.49,0,0,0-.79-1.73l-2.35-1.12a1.5,1.5,0,0,1-.85-1.57q.08-.54.15-1.09a1.47,1.47,0,0,1,1.2-1.29l2.61-.46a1.49,1.49,0,0,0,0-2.93l-2.61-.49a1.47,1.47,0,0,1-1.18-1.31q-.06-.55-.14-1.09a1.5,1.5,0,0,1,.86-1.56l2.36-1.1a1.49,1.49,0,0,0,.81-1.73h0a1.49,1.49,0,0,0-1.55-1.1l-2.64.2a1.47,1.47,0,0,1-1.48-1q-.2-.52-.41-1a1.51,1.51,0,0,1,.43-1.74l2-1.67a1.49,1.49,0,0,0,.34-1.88h0a1.49,1.49,0,0,0-1.79-.66l-2.5.88a1.47,1.47,0,0,1-1.67-.53c-.22-.29-.44-.59-.67-.87a1.5,1.5,0,0,1,0-1.79l1.49-2.14a1.49,1.49,0,0,0-.16-1.9h0a1.49,1.49,0,0,0-1.9-.18l-2.15,1.47a1.5,1.5,0,0,1-1.79-.05l-.87-.68a1.47,1.47,0,0,1-.52-1.68l.91-2.49a1.49,1.49,0,0,0-2.53-1.48l-1.68,2a1.51,1.51,0,0,1-1.75.42l-1-.42a1.47,1.47,0,0,1-.94-1.49l.23-2.64a1.49,1.49,0,0,0-1.09-1.56h0a1.49,1.49,0,0,0-1.73.79l-1.12,2.35a1.5,1.5,0,0,1-1.57.85L413.12,99a1.47,1.47,0,0,1-1.29-1.2l-.46-2.61a1.49,1.49,0,0,0-2.93,0L408,97.83A1.47,1.47,0,0,1,406.65,99l-1.09.14a1.5,1.5,0,0,1-1.56-.86l-1.1-2.36a1.49,1.49,0,0,0-1.73-.81h0a1.49,1.49,0,0,0-1.11,1.55l.21,2.64a1.47,1.47,0,0,1-1,1.48l-1,.41a1.51,1.51,0,0,1-1.74-.43l-1.67-2a1.49,1.49,0,0,0-2.54,1.45l.88,2.5a1.47,1.47,0,0,1-.53,1.67l-.87.67a1.5,1.5,0,0,1-1.79,0l-2.14-1.49a1.49,1.49,0,0,0-1.9.16h0a1.49,1.49,0,0,0-.18,1.9l1.47,2.15a1.5,1.5,0,0,1-.05,1.79q-.35.43-.68.87a1.47,1.47,0,0,1-1.68.52l-2.49-.9a1.49,1.49,0,0,0-1.79.65h0a1.49,1.49,0,0,0,.32,1.88l2,1.68A1.51,1.51,0,0,1,383.29,116.07Zm24.92-12.29-.08,17a7.24,7.24,0,0,0-4.71,3.58L387,119.87A24.06,24.06,0,0,1,408.21,103.78Zm-2.35,24a3.9,3.9,0,1,1,3.88,3.92A3.9,3.9,0,0,1,405.86,127.76Zm23.92-13.33L415,122.86a7.2,7.2,0,0,0-3.58-2.09l.08-17A24,24,0,0,1,429.77,114.43Zm-2,29.22-12-12.06a7.15,7.15,0,0,0,.8-5.86l14.74-8.42a24,24,0,0,1-3.59,26.34Zm-28.72,5.69,8.56-14.67a7.15,7.15,0,0,0,5.86-.75l12,12.06a24,24,0,0,1-26.37,3.36Zm-12.92-26.28,16.39,4.47c0,.07,0,.14,0,.21A7.19,7.19,0,0,0,404.8,133l-8.56,14.67a24.05,24.05,0,0,1-10.07-24.61Z"/><path class="cls-16" d="M412,126.92c0,.11-.57,1.35.22,1.5,0,0,0,.1.71,0a1.4,1.4,0,0,0,1.55.76l4-.16c1.12-.24,3.74-.58,5.27-3,0,0,18.93-3.8,21-5.78s5.72-13,5.72-13l-6.56-3.86s-2.34,10.13-4.87,11.67S423,122.55,423,122.55s-2.6-1.9-3.62-1.9c-.43,0-4.44.29-4.48,1.12,0,.58.59.65,1.13.75a24.76,24.76,0,0,0,3.09,0c.08.06,0,.15-.19.25-.7.4-2.9,1.09-4.22,1.64a9.43,9.43,0,0,0-3.11,1.8A.45.45,0,0,0,412,126.92Z"/><path class="cls-12" d="M451.06,112.59c-3-4.17-10.67-7.25-10.67-7.25,3-5-.08-21.75,11.15-30.8,1.6-1.29,6.59-5.58,11.63-3.87,27.11,9.16,44.07,44.57,44.07,44.57-13.95,8.94-42.56,12.24-42.56,12.24-.63-2.59,3.35-9.87.75-15.16-2.19-4.46-10.36-6.12-12.22-12.37C453.27,105.48,451.06,112.59,451.06,112.59Z"/><path class="cls-9" d="M458,50.38c-5.26.41-8.6.84-11.17-1.07-4.19-3.12-9.08-.32-12.25,2.17-2.48,1.94-3.7,4.86-5.83,6.65s-4.15-.89-4.4.21.88,3.66,4.9,4.87a5.59,5.59,0,0,0,4.83-.45,8.63,8.63,0,0,0,4.33,1.31c3.94,0,5.93,2.34,5.53,4.84s1.5,3.54,3.57,4.3,1.59,9.61,6,10.72,8.9-.26,11.44,3.2,13.43,5.51,17.21-.56,6.59-19-1.49-21.72-11.57-5-13-7.81S463.31,50,458,50.38Z"/><path class="cls-7" d="M315.37,153.58a30.79,30.79,0,0,0,8.8-22c-.19-16.82-15.06-32.87-31.89-32.83a30.85,30.85,0,0,0-10.49,1.86c0-.62,0-1.24,0-1.86,0-25.57-19.81-44-45.38-44A46.29,46.29,0,0,0,190.35,97a21.12,21.12,0,0,0-33.58,16.07A27.17,27.17,0,0,0,125.91,140c0,.07,0,.15,0,.22a19.21,19.21,0,0,0,19.31,18.88L297.57,161C302.63,161,311.84,157.2,315.37,153.58Z"/><path class="cls-17" d="M309.15,155.55a30.08,30.08,0,0,0-31.81-49.29c0-.6,0-1.2,0-1.81a45.07,45.07,0,0,0-90-4,20.56,20.56,0,0,0-32.69,15.64,26.45,26.45,0,0,0-30,26.24v.22a18.71,18.71,0,0,0,18.8,18.38H296A18.39,18.39,0,0,0,309.15,155.55Z"/><path class="cls-2" d="M425.42,209.5a12.32,12.32,0,0,0,3.52-8.79c-.08-6.74-6-13.16-12.76-13.14a12.33,12.33,0,0,0-4.2.75c0-.25,0-.5,0-.75,0-10.24-7.93-17.61-18.17-17.61a18.53,18.53,0,0,0-18.46,16.89,8.46,8.46,0,0,0-13.44,6.43,10.87,10.87,0,0,0-12.35,10.79v.09a7.69,7.69,0,0,0,7.73,7.56l61,.77A13,13,0,0,0,425.42,209.5Z"/><path class="cls-17" d="M423,210.31a12,12,0,0,0-12.66-19.62c0-.24,0-.48,0-.72a17.94,17.94,0,0,0-35.81-1.59,8.19,8.19,0,0,0-13,6.23,10.53,10.53,0,0,0-12,10.44v.09a7.45,7.45,0,0,0,7.48,7.32h60.7A7.32,7.32,0,0,0,423,210.31Z"/><path class="cls-18" d="M64.31,119s6.33,10.21,8.28,11.57a49.32,49.32,0,0,0,6.7,3.16,15.37,15.37,0,0,0,5.54,1.15h.7a.78.78,0,0,0,.74-.27,2.3,2.3,0,0,1,1.08-.79c1.29-.32,1.62-1.89,2.39-2.27.46-.23.61,1.82-1.17,3.9a9.2,9.2,0,0,0,3.12,1,2.28,2.28,0,0,1-.22,2.35,3.88,3.88,0,0,1-.92,2.1s.38.37-.37,1.1a2.59,2.59,0,0,1-1.57.82c-1.06.17-3-.85-4.12-1.8a10.76,10.76,0,0,0-1.22-.88A9.63,9.63,0,0,0,80,138.8c-3.12-.6-10.36-2.14-12.11-3.83-2.25-2.16-10.25-12.18-10.25-12.18Z"/><path class="cls-19" d="M50.58,113.91c2.22-2.64,6.5-1.84,8.6-.09a94.06,94.06,0,0,1,8.46,8.64l-7.95,8.11C51.94,124.67,46.08,119.25,50.58,113.91Z"/><path class="cls-20" d="M60.7,212.69c-.34,13.83-1.64,32.45-1.64,32.45l-10.36.19L47.63,224.8A71.3,71.3,0,0,0,46,213c-.32-1.46-.69-2.92-1.11-4.36a70.89,70.89,0,0,0-2.8-8,72.92,72.92,0,0,0-3.89-7.93c-5.08-9-10.6-20.74-10.72-29.86a123.56,123.56,0,0,1,14-7.51q2.46-1.15,5-2.26a43.94,43.94,0,0,1,5.12,3.66c.36.29.7.58,1,.87a61.86,61.86,0,0,1,5.63,5.46s1.15,28,2.22,37c0,.2,0,.41.07.63C60.8,203.32,60.81,207.7,60.7,212.69Z"/><path class="cls-14" d="M52.74,157s0,.22-.09.62c-.74,4.66-5.33,34.34-5.34,41.21a12.33,12.33,0,0,1-.28,2.26,68,68,0,0,1-2.14,7.52c-.44,1.32-.92,2.72-1.44,4.16-4.72,13.17-12.09,30.09-12.09,30.09l-7.92-3.71s1.48-17.68,2.89-29.87c.46-4,.91-7.41,1.3-9.41a17.78,17.78,0,0,0,.28-2.74c.23-8.15-4-20-4.07-31.81q1.72-1.26,3.64-2.46a123.56,123.56,0,0,1,14-7.51,73.62,73.62,0,0,1,10.15,1.4C52.34,156.89,52.74,157,52.74,157Z"/><path class="cls-12" d="M28.73,135.9A49.12,49.12,0,0,1,37,118.46a16.56,16.56,0,0,1,2.3-2.59c3.12-3.09,6.57-5,10-4.83a13.15,13.15,0,0,1,8.46,4.24c6.84,6.56,2.08,24.86,1.63,27.69-.3,1.86-.55,3.71-.75,5.58-.68,6.17,1.64,21.11,1.22,23.34,0,0-18-7.65-37.31-3.77A300.18,300.18,0,0,1,28.73,135.9Z"/><path class="cls-20" d="M18.27,253.56a64.18,64.18,0,0,1,3.63-6l3.57,1.73s.37,1.58,2.91,3.33,5.12,2.47,6.57,3.66A4.17,4.17,0,0,1,36.32,260c-.06.32-.13.62-.2.88a1,1,0,0,1-1.27.69c-3.69-1.24-16.57-5.62-17-6.32C17.67,255,17.88,254.36,18.27,253.56Z"/><path class="cls-18" d="M23.16,251.13a2.26,2.26,0,0,1-1.53-2.82l.52-1.67,1.31-4.2,4.89,1.62-2,4.66-.5,1.15A2.24,2.24,0,0,1,23.16,251.13Z"/><path class="cls-18" d="M50.6,112.27a4.83,4.83,0,0,0,1,3.9,3.34,3.34,0,0,0,1.72,1.2,2.3,2.3,0,0,0,2.1-.58,4.16,4.16,0,0,0,1.4-2.86l.07-.92.13-1.59h0l.13-1.6-4.62-5.33Z"/><path class="cls-14" d="M31.83,242.49c-1.8-.91-6.37-3.09-8.35-4a1,1,0,0,0-1.34.52l-1.19,2.92a1,1,0,0,0,.45,1.25l8.45,4.47a1,1,0,0,0,1.41-.57l1.08-3.35A1,1,0,0,0,31.83,242.49Z"/><path class="cls-20" d="M51.89,253.48l4-.13s1.06,1.22,4.12,1.6,5.68-.2,7.51.19a4.16,4.16,0,0,1,2.92,2.61c.09.31.17.61.23.87a1,1,0,0,1-.8,1.2c-3.84.61-17.29,2.73-18,2.32-.23-.12-.33-.77-.36-1.66A64.28,64.28,0,0,1,51.89,253.48Z"/><path class="cls-18" d="M55.42,256.07a2.22,2.22,0,0,1-1,0,2.25,2.25,0,0,1-1.63-1.76l-.31-1.72-.79-4.33,5.08-.84.37,5.07.09,1.25A2.25,2.25,0,0,1,55.42,256.07Z"/><path class="cls-20" d="M60.88,245.19l.15,2.93a1,1,0,0,1-.88,1l-12.23,1.15a1,1,0,0,1-1.06-1.1l.49-3.66a1,1,0,0,1,.93-.84l11.59-.43A1,1,0,0,1,60.88,245.19Z"/><path class="cls-18" d="M62.88,89A24.05,24.05,0,0,1,65,95.25c.42,2.62,2.59,5.12,1.6,6.16-1.7,1.78-.49.37-1.85,2.8s-5.43,11.52-14.76,2S53.44,83.37,62.88,89Z"/><path class="cls-1" d="M112.54,132.8c-14.22,2.93-42.9,10.31-66,20.28q-2.56,1.11-5,2.26a123.56,123.56,0,0,0-14,7.51q-1.92,1.2-3.64,2.46c-4.8,3.45-8.46,7.07-10.45,10.81-3.81,7.16,1,12.77,5.66,16.22a38.76,38.76,0,0,0,8.86,4.78,17.78,17.78,0,0,1-.28,2.74c-.39,2-.84,5.41-1.3,9.41A52.27,52.27,0,0,1,11.94,202c-11.49-8.45-15-20.53-9.15-31.52,7-13.09,27.37-25.42,60.63-36.63a442.84,442.84,0,0,1,46.7-12.8Z"/><path class="cls-14" d="M52.56,99.13c-.63-.63-2-1.45-2.64-.43-.48.79-.24,2.59,2,3.29a9.76,9.76,0,0,1,0,5.82s-7.37-3.06-7.1-14.87c.15-6.43,10.34-10.07,12.78-9.52l-1.32,1.35s7.81-3.22,11,2.37a7.69,7.69,0,0,1-1.36,0s4,2.24,3.74,5.92c0,0-2.47-.6-4,.59-1.39,1.07-8.32,1-10.72.17C50.68,92.43,53.07,98.68,52.56,99.13Z"/><path class="cls-18" d="M49.44,125.65s6,10.4,7.92,11.81a49.29,49.29,0,0,0,6.6,3.36,15.38,15.38,0,0,0,5.5,1.32l.7,0a.78.78,0,0,0,.74-.25,2.3,2.3,0,0,1,1.1-.75c1.3-.28,1.67-1.84,2.46-2.2.47-.21.56,1.84-1.29,3.87a9.23,9.23,0,0,0,3.09,1.09,2.28,2.28,0,0,1-.3,2.35,3.88,3.88,0,0,1-1,2.07s.36.38-.4,1.09a2.59,2.59,0,0,1-1.59.77c-1.06.14-3-.94-4.06-1.92a10.61,10.61,0,0,0-1.19-.91A9.63,9.63,0,0,0,64.48,146c-3.11-.7-10.29-2.46-12-4.19-2.19-2.23-9.87-12.49-9.87-12.49Z"/><path class="cls-19" d="M43.53,115.1c3.23-1.23,6.57,1.55,7.56,4.1a94.16,94.16,0,0,1,3.2,11.66L43.4,134.09C39.49,125.18,37,117.59,43.53,115.1Z"/><path class="cls-18" d="M90.29,137.49a28.06,28.06,0,0,1-4-1.91c-.8-.63-1.38.53-1.1,1a1.18,1.18,0,0,0-.94.05c-.29.19-.61,1.33,0,1.47,0,0-1.45.11-.37,1.7,0,0-.81.57-.2,1.18a6.18,6.18,0,0,0,3.62,1.87c1.69.15,1.71-1.2,1.71-1.2s1.06-.45.72-1.22c0,0,.86-.66.5-1.41C90.31,139,91.32,138.05,90.29,137.49Z"/><path class="cls-7" d="M119.35,144.48l-3.44-34.77,46.35-4.58a1.23,1.23,0,0,1,1.34,1.1l3.19,32.33a1.22,1.22,0,0,1-1.1,1.34Z"/><path class="cls-3" d="M162.89,114h19.88a1.69,1.69,0,0,1,1.69,1.69v13.63a0,0,0,0,1,0,0H161.2a0,0,0,0,1,0,0V115.67a1.69,1.69,0,0,1,1.69-1.69Z" transform="translate(276.89 -62.31) rotate(84.36)"/><polygon class="cls-21" points="102.27 136.85 100.66 120.54 115.91 109.72 119.35 144.48 102.27 136.85"/><rect class="cls-2" x="169.41" y="113.67" width="5.84" height="5.84" transform="translate(271.4 -66.37) rotate(84.36)"/><rect class="cls-2" x="170.41" y="123.79" width="5.84" height="5.84" transform="translate(282.37 -58.25) rotate(84.36)"/><path class="cls-9" d="M160,122.65l-6.5-3.28.3,3L137.12,124l3.45-5.28,2.46-.24.27,2.78,6.52-.64-.64-6.52-6.52.64.2,2-3.29.33-4.67,7.14-5.59.55a3.91,3.91,0,1,0,0,2.5l6.91,4.76,6.94-.69a3.9,3.9,0,1,0-.17-1.73l-6.31.62-5.66-3.9,4.48-.44h0L154,124.11l.3,3Z"/><path class="cls-2" d="M201.86,100H210a3,3,0,0,1,3,3v26.73a3,3,0,0,1-3,3h-8.16a3.19,3.19,0,0,1-3.19-3.19V103.22A3.19,3.19,0,0,1,201.86,100Z"/><path class="cls-22" d="M208,100h2a3,3,0,0,1,3,3v26.73a3,3,0,0,1-3,3h-2a0,0,0,0,1,0,0V100A0,0,0,0,1,208,100Z"/><rect class="cls-6" x="206.68" y="100.03" width="1.28" height="32.73"/><rect class="cls-7" x="280.16" y="162.52" width="38.22" height="34.58" rx="4.03" ry="4.03"/><rect class="cls-7" x="280.16" y="195.97" width="38.22" height="34.58" rx="4.03" ry="4.03"/><rect class="cls-7" x="295.4" y="181.29" width="38.22" height="34.58" rx="4.03" ry="4.03"/><rect class="cls-7" x="265.32" y="181.29" width="38.22" height="34.58" rx="4.03" ry="4.03"/><rect class="cls-17" x="270.3" y="167.62" width="57.95" height="57.95" rx="4.03" ry="4.03"/><rect class="cls-3" x="276.75" y="174.07" width="45.06" height="45.06" rx="1.07" ry="1.07"/><rect class="cls-9" x="281.91" y="179.23" width="34.73" height="34.73" rx="1.05" ry="1.05"/><rect class="cls-3" x="285.25" y="182.2" width="5.2" height="5.2" rx="0.94" ry="0.94"/><rect class="cls-3" x="292.87" y="182.2" width="5.2" height="5.2" rx="0.94" ry="0.94"/><rect class="cls-3" x="300.49" y="182.2" width="5.2" height="5.2" rx="0.94" ry="0.94"/><rect class="cls-3" x="308.1" y="182.2" width="5.2" height="5.2" rx="0.94" ry="0.94"/><rect class="cls-3" x="285.25" y="190.39" width="5.2" height="5.2" rx="0.94" ry="0.94"/><rect class="cls-3" x="292.87" y="190.39" width="5.2" height="5.2" rx="0.94" ry="0.94"/><rect class="cls-3" x="300.49" y="190.39" width="5.2" height="5.2" rx="0.94" ry="0.94"/><rect class="cls-3" x="308.1" y="190.39" width="5.2" height="5.2" rx="0.94" ry="0.94"/><rect class="cls-3" x="285.25" y="198.58" width="5.2" height="5.2" rx="0.94" ry="0.94"/><rect class="cls-3" x="292.87" y="198.58" width="5.2" height="5.2" rx="0.94" ry="0.94"/><rect class="cls-3" x="300.49" y="198.58" width="5.2" height="5.2" rx="0.94" ry="0.94"/><rect class="cls-3" x="308.1" y="198.58" width="5.2" height="5.2" rx="0.94" ry="0.94"/><rect class="cls-3" x="285.25" y="206.78" width="5.2" height="5.2" rx="0.94" ry="0.94"/><rect class="cls-3" x="292.87" y="206.78" width="5.2" height="5.2" rx="0.94" ry="0.94"/><rect class="cls-3" x="300.49" y="206.78" width="5.2" height="5.2" rx="0.94" ry="0.94"/><rect class="cls-3" x="308.1" y="206.78" width="5.2" height="5.2" rx="0.94" ry="0.94"/><path class="cls-6" d="M299.28,166a1.07,1.07,0,0,1-1.07-1.07V155a1.07,1.07,0,0,1,2.14,0v10A1.07,1.07,0,0,1,299.28,166Z"/><path class="cls-6" d="M305,166a1.07,1.07,0,0,1-1.07-1.07v-7.42a1.07,1.07,0,0,1,.22-.65l1.48-2a1.07,1.07,0,0,1,1.7,1.29L306,157.88v7.06A1.07,1.07,0,0,1,305,166Z"/><path class="cls-6" d="M293.64,166a1.07,1.07,0,0,1-1.07-1.07v-7.06l-1.27-1.67a1.07,1.07,0,0,1,1.7-1.29l1.48,2a1.07,1.07,0,0,1,.22.65v7.42A1.07,1.07,0,0,1,293.64,166Z"/><path class="cls-6" d="M286.68,166a1.07,1.07,0,0,1-1.07-1.07v-8.31H281a1.07,1.07,0,0,1,0-2.14h5.7a1.07,1.07,0,0,1,1.07,1.07v9.38A1.07,1.07,0,0,1,286.68,166Z"/><path class="cls-6" d="M311.74,166a1.07,1.07,0,0,1-1.07-1.07v-9.38a1.07,1.07,0,0,1,1.07-1.07h5.7a1.07,1.07,0,0,1,0,2.14H312.8v8.31A1.07,1.07,0,0,1,311.74,166Z"/><path class="cls-6" d="M299.28,239.39a1.07,1.07,0,0,1-1.07-1.07v-10a1.07,1.07,0,0,1,2.14,0v10A1.07,1.07,0,0,1,299.28,239.39Z"/><path class="cls-6" d="M306.46,238.8a1.07,1.07,0,0,1-.85-.42l-1.48-2a1.07,1.07,0,0,1-.22-.65v-7.42a1.07,1.07,0,0,1,2.14,0v7.06l1.27,1.67a1.07,1.07,0,0,1-.85,1.71Z"/><path class="cls-6" d="M292.15,238.8a1.07,1.07,0,0,1-.85-1.71l1.27-1.67v-7.06a1.07,1.07,0,0,1,2.14,0v7.42a1.07,1.07,0,0,1-.22.65l-1.48,2A1.07,1.07,0,0,1,292.15,238.8Z"/><path class="cls-6" d="M286.68,238.8H281a1.07,1.07,0,0,1,0-2.14h4.63v-8.31a1.07,1.07,0,0,1,2.14,0v9.38A1.07,1.07,0,0,1,286.68,238.8Z"/><path class="cls-6" d="M317.44,238.8h-5.7a1.07,1.07,0,0,1-1.07-1.07v-9.38a1.07,1.07,0,0,1,2.14,0v8.31h4.63a1.07,1.07,0,0,1,0,2.14Z"/><path class="cls-6" d="M267.57,197.65h-10a1.07,1.07,0,0,1,0-2.14h10a1.07,1.07,0,0,1,0,2.14Z"/><path class="cls-6" d="M267.57,191.95h-7.42a1.07,1.07,0,0,1-.65-.22l-2-1.48a1.07,1.07,0,1,1,1.29-1.7l1.67,1.27h7.06a1.07,1.07,0,0,1,0,2.14Z"/><path class="cls-6" d="M258.2,204.77a1.07,1.07,0,0,1-.65-1.92l2-1.48a1.07,1.07,0,0,1,.65-.22h7.42a1.07,1.07,0,0,1,0,2.14h-7.06l-1.67,1.27A1.06,1.06,0,0,1,258.2,204.77Z"/><path class="cls-6" d="M258.19,215.94a1.07,1.07,0,0,1-1.07-1.07v-5.7a1.07,1.07,0,0,1,1.07-1.07h9.38a1.07,1.07,0,0,1,0,2.14h-8.31v4.63A1.07,1.07,0,0,1,258.19,215.94Z"/><path class="cls-6" d="M267.57,185.19h-9.38a1.07,1.07,0,0,1-1.07-1.07v-5.7a1.07,1.07,0,1,1,2.14,0V183h8.31a1.07,1.07,0,0,1,0,2.14Z"/><path class="cls-6" d="M341,197.65H331a1.07,1.07,0,0,1,0-2.14h10a1.07,1.07,0,0,1,0,2.14Z"/><path class="cls-6" d="M338.4,191.95H331a1.07,1.07,0,0,1,0-2.14H338l1.67-1.27a1.07,1.07,0,1,1,1.29,1.7l-2,1.48A1.07,1.07,0,0,1,338.4,191.95Z"/><path class="cls-6" d="M340.36,204.77a1.06,1.06,0,0,1-.64-.22L338,203.29H331a1.07,1.07,0,0,1,0-2.14h7.42a1.07,1.07,0,0,1,.65.22l2,1.48a1.07,1.07,0,0,1-.65,1.92Z"/><path class="cls-6" d="M340.36,215.94a1.07,1.07,0,0,1-1.07-1.07v-4.63H331a1.07,1.07,0,0,1,0-2.14h9.38a1.07,1.07,0,0,1,1.07,1.07v5.7A1.07,1.07,0,0,1,340.36,215.94Z"/><path class="cls-6" d="M340.36,185.19H331a1.07,1.07,0,0,1,0-2.14h8.31v-4.63a1.07,1.07,0,1,1,2.14,0v5.7A1.07,1.07,0,0,1,340.36,185.19Z"/><path class="cls-23" d="M279.36,166.93c0,.12.41,1.38-.38,1.44,0,0,0,.1-.7,0a1.38,1.38,0,0,1-1.6.57l-3.88-.6c-1.06-.36-3.59-1-4.81-3.49,0,0-18-5.84-19.88-8S244,143.43,244,143.43l6.83-3s1.14,10.15,3.44,11.94,14.84,9.09,14.84,9.09,2.75-1.56,3.74-1.45c.42.06,3.23.38,3.17,1.2,0,.57-1.11.78-1.81.75a9.57,9.57,0,0,0-1.32-.07c-.08,0,0,.14.16.26.63.47,2.7,1.39,3.93,2.07a9.29,9.29,0,0,1,2.83,2.1A.44.44,0,0,1,279.36,166.93Z"/><path class="cls-24" d="M230.61,262.68a4,4,0,0,1-.2,1.75c-.23.53-7.48,1.91-14.36.67a1.19,1.19,0,0,1-1-1.27l.06-.78Z"/><path class="cls-9" d="M230.58,262.55c-.44-1.3-7.35-2.27-9.77-2.41-2.72-.16-.2-1.83-2.42-1.58l-2.22.26a8.86,8.86,0,0,0-1,3.78c0,.15,0,.29,0,.46,0,1.57,4.63,1.42,8.9,1.37,2.85,0,5.13-.14,6.36-1.37A.48.48,0,0,0,230.58,262.55Z"/><path class="cls-25" d="M215.61,252.8v7.3s7,1.38,5.41.05l.5-6.73Z"/><path class="cls-24" d="M254,262.72a4,4,0,0,1,0,1.76c-.18.55-7.28,2.59-14.24,2a1.19,1.19,0,0,1-1.07-1.17l0-.78Z"/><path class="cls-9" d="M253.93,262.59c-.56-1.26-7.53-1.58-9.95-1.5-2.72.1-.37-1.8-2.55-1.35l-2.19.46a8.85,8.85,0,0,0-.67,3.85c0,.15,0,.29,0,.45.14,1.57,4.74,1,9,.55,2.83-.29,5.1-.62,6.21-1.95A.48.48,0,0,0,253.93,262.59Z"/><path class="cls-25" d="M238.13,254.28l.69,7.26s7.09.73,5.4-.45l-.12-6.74Z"/><path class="cls-14" d="M242.48,172.17s-23.62-8.77-34.36,1.29c-2.07,14.38,5.45,40.71,5.64,52.35.15,9.42.23,18.41.75,31l7.58-.2a264,264,0,0,0,3.75-30,205.4,205.4,0,0,0-.53-31.42l2,.09s5.21,19.09,6.54,29.38c1.27,9.78,2.42,21.17,3,32.17l8.6-.34S247,235.13,247,224.2C246.88,209.57,244.11,181.48,242.48,172.17Z"/><path class="cls-26" d="M298.53,171.92c.07.1.77,1.22,0,1.49,0,0,0,.09-.68.14a1.38,1.38,0,0,1-1.38,1l-3.9.48c-1.12-.05-3.72,0-5.58-2,0,0-19-.68-21.32-2.26S258.08,159,258.08,159l5.74-4.78s3.88,9.45,6.58,10.54,16.76,4.68,16.76,4.68,2.22-2.26,3.2-2.42c.42-.06,3.55.11,3.73.91.12.56-.54.75-1.44.71a10.88,10.88,0,0,0-1.73.16c-.07.07,0,.14.23.21.74.28,3,.6,4.35.92a9.26,9.26,0,0,1,3.3,1.25A.44.44,0,0,1,298.53,171.92Z"/><path class="cls-11" d="M258.36,164.24c2.2-4.51,9.19-8.72,9.19-8.72-3.72-4.38-3.38-21.09-15.69-28.08-1.75-1-7.27-4.36-11.88-1.91-24.82,13.18-34.14,51.88-34.14,51.88,14.94,6.45,39.17,3,39.17,3a69.09,69.09,0,0,1,9.25-28.09C255.09,157.7,258.36,164.24,258.36,164.24Z"/><path class="cls-26" d="M267,113.86s-.72,3.3-1.21,4.72.67,2.41.58,2.88-1.37.91-1.37.91-.43,4.64-2.15,5.24-5.32-1.46-5.32-1.46l-2.54,4.44a10.82,10.82,0,0,1-8.87-5.82l2.4-4.2s.93-9.23,6.41-11.94S267,113.86,267,113.86Z"/><path class="cls-14" d="M271.42,113c1.66-1.71,1.53-3.38-.74-4.12-4.47-1.47-4.89-6.23-12.33-6.78a12.22,12.22,0,0,0-4.18.43,13.25,13.25,0,0,1,.9-1.32,4.76,4.76,0,0,0-2,1.65c-.72-.25-2.51-.78-3.16-.22a4.59,4.59,0,0,1,2,.79c-4.76,2.39-8.13,7.76-6.11,14.71,1.2,4.13,6.45,4.15,9.16,2.47,0,0-2.6-1.19-1.79-3,.63-1.44,2.25-1.76,2.84-.59.9,1.79.61,1.89,1.21,2.13a14,14,0,0,1,2.35-4.55s6.89,2.62,10.12.22a8.09,8.09,0,0,1-1.75-.1A5,5,0,0,0,271.42,113Z"/><path class="cls-27" d="M212.1,181.34s6.12,1,9.49,0v6l-4.74,2.76L213,188.42S211.5,183.15,212.1,181.34Z"/><path class="cls-27" d="M230.56,182.72s6.12.56,9.49-.47l.39,6.82-4.57,2.85-4.44-2.11S230,184.53,230.56,182.72Z"/></g></g></svg>