<svg xmlns="http://www.w3.org/2000/svg" enable-background="new 0 0 24 24" viewBox="0 0 24 24"><path fill="#000000" d="M22.6,11.7l-2.7-1.8l-1.4-4.3c-0.4-1.2-1.6-2.1-2.8-2.1H4c-1.7,0-3,1.3-3,3v10c0,0.6,0.4,1,1,1h1c0,1.7,1.3,3,3,3s3-1.3,3-3h6c0,1.7,1.3,3,3,3s3-1.3,3-3h1c0.6,0,1-0.4,1-1v-4C23,12.2,22.8,11.9,22.6,11.7z M6,18.5c-0.6,0-1-0.4-1-1s0.4-1,1-1s1,0.4,1,1C7,18.1,6.6,18.5,6,18.5z M14,10.3V5.5h1.6c0.4,0,0.8,0.3,0.9,0.7l1.4,4.1H14z M18,18.5c-0.6,0-1-0.4-1-1s0.4-1,1-1s1,0.4,1,1C19,18.1,18.6,18.5,18,18.5z"/></svg>