<svg xmlns="http://www.w3.org/2000/svg" enable-background="new 0 0 24 24" viewBox="0 0 24 24"><path fill="#000000" d="M16.3,7.7c0.4,0.4,1,0.4,1.4,0c0,0,0,0,0,0L19,6.4l1.3,1.3c0.4,0.4,1,0.4,1.4,0c0.4-0.4,0.4-1,0-1.4L20.4,5l1.3-1.3c0.4-0.4,0.4-1,0-1.4s-1-0.4-1.4,0c0,0,0,0,0,0L19,3.6l-1.3-1.3c-0.4-0.4-1-0.4-1.4,0c-0.4,0.4-0.4,1,0,1.4L17.6,5l-1.3,1.3C15.9,6.7,15.9,7.3,16.3,7.7z M19.2,8.8L19,8.5l-0.2,0.2c-0.1,0.1-0.3,0.3-0.5,0.4l-4.1,4.2c-1.2,1.2-3.1,1.2-4.2,0c0,0,0,0,0,0L2.3,5.7C2.1,6.1,2,6.6,2,7v10c0,1.7,1.3,3,3,3h14c1.7,0,3-1.3,3-3V9.3C21.1,9.7,20,9.5,19.2,8.8z M12.7,11.9L15.6,9c-1.1-0.8-1.4-2.3-0.6-3.4c0.1-0.1,0.2-0.3,0.3-0.4L15.5,5l-0.2-0.2C15,4.5,14.8,4.3,14.7,4H5C4.6,4,4.1,4.1,3.7,4.3l7.6,7.6C11.7,12.3,12.3,12.3,12.7,11.9z"/></svg>