<?xml version="1.0" encoding="UTF-8"?>
<svg xmlns="http://www.w3.org/2000/svg" xmlns:xlink="http://www.w3.org/1999/xlink" width="126px" height="35px" viewBox="0 0 125 35" version="1.1">
<g id="surface1">
<path style=" stroke:none;fill-rule:nonzero;fill:rgb(90.196078%,0%,28.627451%);fill-opacity:1;" d="M 17.492188 1.355469 C 17.167969 1.457031 17.367188 1.609375 17.476562 1.710938 C 21.8125 5.789062 25.890625 10.128906 30.117188 14.324219 C 31.546875 15.746094 31.519531 16.488281 30.054688 17.898438 C 28.566406 19.328125 27.066406 20.746094 25.558594 22.15625 C 25.332031 22.367188 25.144531 22.671875 24.6875 22.601562 C 24.667969 21.535156 25 20.484375 24.875 19.398438 C 24.6875 17.835938 23.859375 16.867188 22.40625 16.359375 C 20.804688 15.808594 19.144531 15.683594 17.484375 15.539062 C 15.929688 15.402344 14.367188 15.285156 12.886719 14.742188 C 8.980469 13.320312 8.019531 9.886719 10.738281 6.710938 C 12.292969 4.902344 13.992188 3.210938 15.796875 1.644531 C 15.847656 1.601562 15.902344 1.539062 15.914062 1.472656 C 15.921875 1.4375 15.839844 1.394531 15.796875 1.347656 C 16.351562 1.355469 16.917969 1.355469 17.492188 1.355469 Z M 17.492188 1.355469 "/>
<path style=" stroke:none;fill-rule:nonzero;fill:rgb(0%,44.705882%,74.117647%);fill-opacity:1;" d="M 15.355469 33.589844 C 15.605469 33.027344 15.042969 32.910156 14.816406 32.675781 C 11.035156 28.832031 7.238281 25.015625 3.449219 21.199219 C 1.851562 19.589844 1.859375 18.875 3.511719 17.292969 C 4.976562 15.890625 6.449219 14.507812 8.0625 12.976562 C 8.125 14.054688 8.144531 14.957031 8.242188 15.855469 C 8.484375 17.941406 9.410156 18.945312 11.484375 19.417969 C 13.261719 19.824219 15.085938 19.824219 16.882812 20.050781 C 18.371094 20.230469 19.835938 20.484375 21.191406 21.164062 C 23.851562 22.511719 24.578125 24.925781 23.085938 27.519531 C 22.074219 29.285156 20.421875 30.476562 19.101562 31.96875 C 18.625 32.503906 17.933594 32.847656 17.71875 33.597656 C 16.917969 33.589844 16.136719 33.589844 15.355469 33.589844 Z M 15.355469 33.589844 "/>
<path style=" stroke:none;fill-rule:nonzero;fill:rgb(0%,44.705882%,74.117647%);fill-opacity:1;" d="M 123.113281 13.394531 C 121.675781 13.414062 120.25 13.421875 118.8125 13.4375 C 117.949219 13.457031 117.90625 14.097656 117.898438 14.722656 C 117.886719 16.585938 117.886719 18.449219 117.886719 20.3125 C 117.886719 21.425781 117.898438 22.527344 117.878906 23.640625 C 117.878906 23.957031 117.898438 24.335938 117.746094 24.582031 C 116.910156 25.867188 115.597656 25.421875 114.441406 25.386719 C 113.613281 25.359375 113.03125 24.890625 113.03125 23.957031 C 113.03125 21.921875 113.039062 19.878906 113.039062 17.84375 C 113.039062 16.839844 113.011719 15.835938 113.046875 14.832031 C 113.082031 13.835938 112.699219 13.359375 111.675781 13.414062 C 110.964844 13.457031 110.253906 13.429688 109.535156 13.421875 C 107.929688 13.402344 107.480469 13.015625 107.488281 11.648438 C 107.5 10.253906 107.9375 9.820312 109.507812 9.839844 C 114.035156 9.886719 118.570312 9.703125 123.097656 9.949219 C 123.113281 11.097656 123.113281 12.246094 123.113281 13.394531 Z M 123.113281 13.394531 "/>
<path style=" stroke:none;fill-rule:nonzero;fill:rgb(0%,44.705882%,74.117647%);fill-opacity:1;" d="M 83.835938 17.109375 C 84.230469 16.570312 84.242188 16 84.242188 15.429688 C 84.242188 14.035156 84.257812 12.632812 84.25 11.242188 C 84.242188 10.417969 84.644531 9.976562 85.417969 9.832031 C 85.875 9.75 86.324219 9.667969 86.789062 9.640625 C 88.226562 9.558594 88.972656 10.175781 88.980469 11.621094 C 89.027344 15.738281 89.019531 19.859375 89.027344 23.976562 C 89.027344 24.699219 88.722656 25.269531 87.976562 25.378906 C 86.226562 25.648438 84.574219 25.550781 83.359375 23.9375 C 81.921875 22.023438 80.21875 20.339844 78.601562 18.578125 C 78.257812 18.207031 77.902344 17.863281 77.308594 17.761719 C 76.914062 18.242188 76.921875 18.855469 76.914062 19.445312 C 76.902344 20.910156 76.875 22.382812 76.914062 23.847656 C 76.941406 24.890625 76.464844 25.332031 75.46875 25.40625 C 72.007812 25.648438 72.089844 25.179688 72.125 22.410156 C 72.164062 19.15625 72.109375 15.890625 72.152344 12.632812 C 72.171875 11.695312 71.785156 10.535156 72.953125 9.957031 C 74.28125 9.304688 76.382812 9.613281 77.363281 10.574219 C 77.820312 11.023438 78.207031 11.539062 78.636719 12.011719 C 79.957031 13.464844 81.277344 14.914062 82.605469 16.359375 C 82.9375 16.703125 83.269531 17.046875 83.835938 17.109375 Z M 83.835938 17.109375 "/>
<path style=" stroke:none;fill-rule:nonzero;fill:rgb(0%,44.705882%,74.117647%);fill-opacity:1;" d="M 41.980469 25.675781 C 39.636719 25.695312 37.375 25.285156 35.226562 24.347656 C 34.457031 24.011719 33.511719 23.703125 33.871094 22.546875 C 34.257812 21.296875 35.738281 20.429688 36.773438 20.847656 C 38.128906 21.398438 39.464844 21.957031 40.9375 22.121094 C 41.828125 22.222656 42.71875 22.292969 43.589844 22.058594 C 44.089844 21.921875 44.566406 21.660156 44.574219 21.082031 C 44.574219 20.503906 44.128906 20.214844 43.617188 20.085938 C 42.097656 19.707031 40.570312 19.363281 39.0625 18.964844 C 38.171875 18.730469 37.285156 18.46875 36.421875 18.132812 C 35.039062 17.582031 34.085938 16.621094 33.972656 15.050781 C 33.84375 13.421875 34.445312 12.109375 35.8125 11.195312 C 37.597656 10.003906 39.621094 9.632812 41.703125 9.660156 C 43.632812 9.675781 45.527344 10.003906 47.34375 10.691406 C 48.070312 10.960938 49.058594 11.042969 48.859375 12.246094 C 48.679688 13.320312 47.691406 14.234375 46.660156 14.253906 C 46.34375 14.261719 46.023438 14.207031 45.714844 14.117188 C 44.351562 13.710938 42.941406 13.492188 41.539062 13.265625 C 41.191406 13.214844 40.832031 13.148438 40.492188 13.277344 C 39.996094 13.449219 39.539062 13.710938 39.484375 14.269531 C 39.429688 14.90625 39.941406 15.113281 40.4375 15.25 C 42.1875 15.71875 43.949219 16.152344 45.691406 16.632812 C 46.40625 16.832031 47.117188 17.066406 47.800781 17.355469 C 50.484375 18.523438 51.015625 21.667969 48.859375 23.667969 C 46.902344 25.457031 44.460938 25.667969 41.980469 25.675781 Z M 41.980469 25.675781 "/>
<path style=" stroke:none;fill-rule:nonzero;fill:rgb(0%,44.705882%,74.117647%);fill-opacity:1;" d="M 69.164062 15.320312 C 69.089844 16.894531 69.199219 18.46875 69 20.03125 C 68.695312 22.472656 67.332031 24.101562 65.085938 24.941406 C 62.328125 25.972656 59.507812 25.964844 56.726562 25.042969 C 54.121094 24.183594 52.585938 22.023438 52.523438 19.191406 C 52.46875 16.578125 52.515625 13.972656 52.503906 11.359375 C 52.503906 10.402344 52.917969 9.929688 53.886719 9.832031 C 57.175781 9.503906 57.425781 9.714844 57.425781 13.003906 C 57.425781 14.757812 57.390625 16.515625 57.433594 18.257812 C 57.515625 20.9375 58.925781 22.140625 61.484375 21.785156 C 63.273438 21.535156 64.152344 20.511719 64.171875 18.539062 C 64.195312 16.214844 64.171875 13.890625 64.179688 11.566406 C 64.1875 10.238281 64.441406 9.964844 65.769531 9.8125 C 68.722656 9.46875 69.164062 9.839844 69.164062 12.761719 C 69.164062 13.601562 69.164062 14.460938 69.164062 15.320312 Z M 69.164062 15.320312 "/>
<path style=" stroke:none;fill-rule:nonzero;fill:rgb(0%,44.705882%,74.117647%);fill-opacity:1;" d="M 107.238281 25.457031 C 106.015625 25.640625 105.011719 25.207031 104.597656 23.695312 C 104.347656 22.761719 103.546875 22.402344 102.675781 22.484375 C 101.222656 22.617188 99.765625 22.601562 98.3125 22.527344 C 97.476562 22.484375 96.929688 22.800781 96.535156 23.585938 C 95.574219 25.511719 94.71875 25.894531 92.664062 25.449219 C 91.378906 25.167969 91.046875 24.574219 91.621094 23.371094 C 93.113281 20.242188 94.640625 17.128906 96.15625 14.019531 C 96.667969 12.960938 97.207031 11.902344 97.691406 10.835938 C 98.023438 10.109375 98.527344 9.703125 99.328125 9.660156 C 99.855469 9.632812 100.386719 9.570312 100.925781 9.550781 C 102.164062 9.523438 103.105469 9.992188 103.683594 11.179688 C 105.585938 15.09375 107.535156 18.992188 109.4375 22.917969 C 110.316406 24.726562 109.851562 25.429688 107.867188 25.457031 C 107.714844 25.46875 107.578125 25.457031 107.238281 25.457031 Z M 100.511719 19.398438 C 100.933594 19.398438 101.363281 19.433594 101.785156 19.390625 C 102.234375 19.34375 102.550781 19.074219 102.351562 18.585938 C 101.976562 17.664062 101.597656 16.742188 101.121094 15.882812 C 100.800781 15.292969 100.332031 15.328125 100 15.945312 C 99.730469 16.441406 99.488281 16.957031 99.253906 17.472656 C 98.4375 19.28125 98.527344 19.410156 100.511719 19.398438 Z M 100.511719 19.398438 "/>
</g>
</svg>
